# MagicaVoxel @ Ephtracy

# material
mtllib GunBlue1.mtl
usemtl palette

# normals
vn -1 0 0
vn 1 0 0
vn 0 0 1
vn 0 0 -1
vn 0 -1 0
vn 0 1 0

# texcoords
vt 0.142578 0.5
vt 0.158203 0.5
vt 0.841797 0.5
vt 0.943359 0.5
vt 0.962891 0.5
vt 0.978516 0.5

# verts
v -9 6 1
v -9 6 -1
v -9 7 2
v -9 7 1
v -9 7 -1
v -9 7 -2
v -9 9 2
v -9 9 1
v -9 9 -1
v -9 9 -2
v -9 10 1
v -9 10 -1
v -8 7 1
v -8 7 -1
v -8 9 1
v -8 9 -1
v -6 0 3
v -6 0 -3
v -6 1 3
v -6 1 -3
v -5 0 4
v -5 0 3
v -5 0 -3
v -5 0 -4
v -5 1 4
v -5 1 3
v -5 1 -3
v -5 1 -4
v -5 2 3
v -5 2 -3
v -4 0 5
v -4 0 4
v -4 0 -4
v -4 0 -5
v -4 1 5
v -4 1 4
v -4 1 3
v -4 1 -3
v -4 1 -4
v -4 1 -5
v -4 2 4
v -4 2 3
v -4 2 2
v -4 2 -2
v -4 2 -3
v -4 2 -4
v -4 3 2
v -4 3 -2
v -3 0 6
v -3 0 5
v -3 0 -5
v -3 0 -6
v -3 1 6
v -3 1 5
v -3 1 4
v -3 1 -4
v -3 1 -5
v -3 1 -6
v -3 2 5
v -3 2 4
v -3 2 3
v -3 2 2
v -3 2 -2
v -3 2 -3
v -3 2 -4
v -3 2 -5
v -3 3 3
v -3 3 2
v -3 3 -2
v -3 3 -3
v -2 2 4
v -2 2 3
v -2 2 -3
v -2 2 -4
v -2 3 4
v -2 3 3
v -2 3 2
v -2 3 1
v -2 3 -1
v -2 3 -2
v -2 3 -3
v -2 3 -4
v -2 6 3
v -2 6 2
v -2 6 1
v -2 6 -1
v -2 6 -2
v -2 6 -3
v -2 7 3
v -2 7 2
v -2 7 1
v -2 7 -1
v -2 7 -2
v -2 7 -3
v -2 9 3
v -2 9 2
v -2 9 1
v -2 9 -1
v -2 9 -2
v -2 9 -3
v -2 10 3
v -2 10 2
v -2 10 1
v -2 10 -1
v -2 10 -2
v -2 10 -3
v -2 11 2
v -2 11 1
v -2 11 -1
v -2 11 -2
v -1 3 1
v -1 3 -1
v -1 6 1
v -1 6 -1
v 1 3 2
v 1 3 1
v 1 3 -1
v 1 3 -2
v 1 6 2
v 1 6 1
v 1 6 -1
v 1 6 -2
v 3 10 3
v 3 10 2
v 3 10 -2
v 3 10 -3
v 3 11 3
v 3 11 2
v 3 11 1
v 3 11 -1
v 3 11 -2
v 3 11 -3
v 3 12 2
v 3 12 1
v 3 12 -1
v 3 12 -2
v -1 3 2
v -1 3 1
v -1 3 -1
v -1 3 -2
v -1 6 2
v -1 6 1
v -1 6 -1
v -1 6 -2
v 1 3 1
v 1 3 -1
v 1 6 1
v 1 6 -1
v 2 2 4
v 2 2 3
v 2 2 -3
v 2 2 -4
v 2 3 4
v 2 3 3
v 2 3 2
v 2 3 1
v 2 3 -1
v 2 3 -2
v 2 3 -3
v 2 3 -4
v 2 6 2
v 2 6 1
v 2 6 -1
v 2 6 -2
v 3 0 6
v 3 0 5
v 3 0 -5
v 3 0 -6
v 3 1 6
v 3 1 5
v 3 1 4
v 3 1 -4
v 3 1 -5
v 3 1 -6
v 3 2 5
v 3 2 4
v 3 2 3
v 3 2 2
v 3 2 -2
v 3 2 -3
v 3 2 -4
v 3 2 -5
v 3 3 3
v 3 3 2
v 3 3 -2
v 3 3 -3
v 3 6 3
v 3 6 2
v 3 6 -2
v 3 6 -3
v 3 7 3
v 3 7 2
v 3 7 -2
v 3 7 -3
v 4 0 5
v 4 0 4
v 4 0 -4
v 4 0 -5
v 4 1 5
v 4 1 4
v 4 1 3
v 4 1 -3
v 4 1 -4
v 4 1 -5
v 4 2 4
v 4 2 3
v 4 2 2
v 4 2 -2
v 4 2 -3
v 4 2 -4
v 4 3 2
v 4 3 -2
v 4 7 3
v 4 7 2
v 4 7 -2
v 4 7 -3
v 4 8 3
v 4 8 2
v 4 8 -2
v 4 8 -3
v 5 0 4
v 5 0 3
v 5 0 -3
v 5 0 -4
v 5 1 4
v 5 1 3
v 5 1 -3
v 5 1 -4
v 5 2 3
v 5 2 -3
v 5 7 2
v 5 7 -2
v 5 8 3
v 5 8 2
v 5 8 -2
v 5 8 -3
v 5 11 3
v 5 11 2
v 5 11 -2
v 5 11 -3
v 6 0 3
v 6 0 -3
v 6 1 3
v 6 1 -3
v 6 8 2
v 6 8 -2
v 6 12 2
v 6 12 -2
v -3 0 6
v -3 1 6
v 3 0 6
v 3 1 6
v -4 0 5
v -4 1 5
v -3 0 5
v -3 1 5
v -3 2 5
v 3 0 5
v 3 1 5
v 3 2 5
v 4 0 5
v 4 1 5
v -5 0 4
v -5 1 4
v -4 0 4
v -4 1 4
v -4 2 4
v -3 1 4
v -3 2 4
v -2 2 4
v -2 3 4
v 2 2 4
v 2 3 4
v 3 1 4
v 3 2 4
v 4 0 4
v 4 1 4
v 4 2 4
v 5 0 4
v 5 1 4
v -6 0 3
v -6 1 3
v -5 0 3
v -5 1 3
v -5 2 3
v -4 1 3
v -4 2 3
v -3 2 3
v -3 3 3
v -2 2 3
v -2 3 3
v -2 6 3
v -2 7 3
v -2 9 3
v -2 10 3
v 1 9 3
v 1 10 3
v 2 2 3
v 2 3 3
v 2 7 3
v 2 8 3
v 3 2 3
v 3 3 3
v 3 6 3
v 3 7 3
v 3 8 3
v 3 10 3
v 3 11 3
v 4 1 3
v 4 2 3
v 4 7 3
v 4 8 3
v 5 0 3
v 5 1 3
v 5 2 3
v 5 8 3
v 5 11 3
v 6 0 3
v 6 1 3
v -9 7 2
v -9 9 2
v -8 7 2
v -8 9 2
v -4 2 2
v -4 3 2
v -3 2 2
v -3 3 2
v -2 3 2
v -2 6 2
v -2 7 2
v -2 9 2
v -2 10 2
v -2 11 2
v -1 3 2
v -1 6 2
v 1 3 2
v 1 6 2
v 1 10 2
v 2 3 2
v 2 6 2
v 2 10 2
v 2 11 2
v 3 2 2
v 3 3 2
v 3 10 2
v 3 11 2
v 3 12 2
v 4 2 2
v 4 3 2
v 4 7 2
v 4 8 2
v 5 7 2
v 5 8 2
v 5 11 2
v 6 8 2
v 6 12 2
v -9 6 1
v -9 7 1
v -9 9 1
v -9 10 1
v -8 6 1
v -8 7 1
v -8 9 1
v -8 10 1
v -2 6 1
v -2 7 1
v -2 9 1
v -2 10 1
v -1 3 1
v -1 6 1
v 1 3 1
v 1 6 1
v -9 7 -1
v -9 9 -1
v -8 7 -1
v -8 9 -1
v -2 3 -1
v -2 6 -1
v -1 3 -1
v -1 6 -1
v 1 3 -1
v 1 6 -1
v 2 3 -1
v 2 6 -1
v -9 7 1
v -9 9 1
v -8 7 1
v -8 9 1
v -2 3 1
v -2 6 1
v -1 3 1
v -1 6 1
v 1 3 1
v 1 6 1
v 2 3 1
v 2 6 1
v -9 6 -1
v -9 7 -1
v -9 9 -1
v -9 10 -1
v -8 6 -1
v -8 7 -1
v -8 9 -1
v -8 10 -1
v -2 6 -1
v -2 7 -1
v -2 9 -1
v -2 10 -1
v -1 3 -1
v -1 6 -1
v 1 3 -1
v 1 6 -1
v -9 7 -2
v -9 9 -2
v -8 7 -2
v -8 9 -2
v -4 2 -2
v -4 3 -2
v -3 2 -2
v -3 3 -2
v -2 3 -2
v -2 6 -2
v -2 7 -2
v -2 9 -2
v -2 10 -2
v -2 11 -2
v -1 3 -2
v -1 6 -2
v 1 3 -2
v 1 6 -2
v 1 10 -2
v 2 3 -2
v 2 6 -2
v 2 10 -2
v 2 11 -2
v 3 2 -2
v 3 3 -2
v 3 10 -2
v 3 11 -2
v 3 12 -2
v 4 2 -2
v 4 3 -2
v 4 7 -2
v 4 8 -2
v 5 7 -2
v 5 8 -2
v 5 11 -2
v 6 8 -2
v 6 12 -2
v -6 0 -3
v -6 1 -3
v -5 0 -3
v -5 1 -3
v -5 2 -3
v -4 1 -3
v -4 2 -3
v -3 2 -3
v -3 3 -3
v -2 2 -3
v -2 3 -3
v -2 6 -3
v -2 7 -3
v -2 9 -3
v -2 10 -3
v 1 9 -3
v 1 10 -3
v 2 2 -3
v 2 3 -3
v 2 7 -3
v 2 8 -3
v 3 2 -3
v 3 3 -3
v 3 6 -3
v 3 7 -3
v 3 8 -3
v 3 10 -3
v 3 11 -3
v 4 1 -3
v 4 2 -3
v 4 7 -3
v 4 8 -3
v 5 0 -3
v 5 1 -3
v 5 2 -3
v 5 8 -3
v 5 11 -3
v 6 0 -3
v 6 1 -3
v -5 0 -4
v -5 1 -4
v -4 0 -4
v -4 1 -4
v -4 2 -4
v -3 1 -4
v -3 2 -4
v -2 2 -4
v -2 3 -4
v 2 2 -4
v 2 3 -4
v 3 1 -4
v 3 2 -4
v 4 0 -4
v 4 1 -4
v 4 2 -4
v 5 0 -4
v 5 1 -4
v -4 0 -5
v -4 1 -5
v -3 0 -5
v -3 1 -5
v -3 2 -5
v 3 0 -5
v 3 1 -5
v 3 2 -5
v 4 0 -5
v 4 1 -5
v -3 0 -6
v -3 1 -6
v 3 0 -6
v 3 1 -6
v -3 0 6
v 3 0 6
v -4 0 5
v -3 0 5
v 3 0 5
v 4 0 5
v -5 0 4
v -4 0 4
v 4 0 4
v 5 0 4
v -6 0 3
v -5 0 3
v 5 0 3
v 6 0 3
v -6 0 -3
v -5 0 -3
v 5 0 -3
v 6 0 -3
v -5 0 -4
v -4 0 -4
v 4 0 -4
v 5 0 -4
v -4 0 -5
v -3 0 -5
v 3 0 -5
v 4 0 -5
v -3 0 -6
v 3 0 -6
v -2 6 3
v 3 6 3
v -2 6 2
v -1 6 2
v 1 6 2
v 2 6 2
v 3 6 2
v -9 6 1
v -8 6 1
v -2 6 1
v -1 6 1
v 1 6 1
v 2 6 1
v -9 6 -1
v -8 6 -1
v -2 6 -1
v -1 6 -1
v 1 6 -1
v 2 6 -1
v -2 6 -2
v -1 6 -2
v 1 6 -2
v 2 6 -2
v 3 6 -2
v -2 6 -3
v 3 6 -3
v 3 7 3
v 4 7 3
v -9 7 2
v -8 7 2
v -2 7 2
v 3 7 2
v 4 7 2
v 5 7 2
v -9 7 1
v -8 7 1
v -2 7 1
v -9 7 -1
v -8 7 -1
v -2 7 -1
v -9 7 -2
v -8 7 -2
v -2 7 -2
v 3 7 -2
v 4 7 -2
v 5 7 -2
v 3 7 -3
v 4 7 -3
v 4 8 3
v 5 8 3
v 4 8 2
v 5 8 2
v 6 8 2
v 4 8 -2
v 5 8 -2
v 6 8 -2
v 4 8 -3
v 5 8 -3
v -9 9 1
v -8 9 1
v -9 9 -1
v -8 9 -1
v -3 1 6
v 3 1 6
v -4 1 5
v -3 1 5
v 3 1 5
v 4 1 5
v -5 1 4
v -4 1 4
v -3 1 4
v 3 1 4
v 4 1 4
v 5 1 4
v -6 1 3
v -5 1 3
v -4 1 3
v 4 1 3
v 5 1 3
v 6 1 3
v -6 1 -3
v -5 1 -3
v -4 1 -3
v 4 1 -3
v 5 1 -3
v 6 1 -3
v -5 1 -4
v -4 1 -4
v -3 1 -4
v 3 1 -4
v 4 1 -4
v 5 1 -4
v -4 1 -5
v -3 1 -5
v 3 1 -5
v 4 1 -5
v -3 1 -6
v 3 1 -6
v -3 2 5
v 3 2 5
v -4 2 4
v -3 2 4
v -2 2 4
v 2 2 4
v 3 2 4
v 4 2 4
v -5 2 3
v -4 2 3
v -3 2 3
v -2 2 3
v 2 2 3
v 3 2 3
v 4 2 3
v 5 2 3
v -4 2 2
v -3 2 2
v 3 2 2
v 4 2 2
v -4 2 -2
v -3 2 -2
v 3 2 -2
v 4 2 -2
v -5 2 -3
v -4 2 -3
v -3 2 -3
v -2 2 -3
v 2 2 -3
v 3 2 -3
v 4 2 -3
v 5 2 -3
v -4 2 -4
v -3 2 -4
v -2 2 -4
v 2 2 -4
v 3 2 -4
v 4 2 -4
v -3 2 -5
v 3 2 -5
v -2 3 4
v 2 3 4
v -3 3 3
v -2 3 3
v 2 3 3
v 3 3 3
v -4 3 2
v -3 3 2
v -2 3 2
v -1 3 2
v 1 3 2
v 2 3 2
v 3 3 2
v 4 3 2
v -2 3 1
v -1 3 1
v 1 3 1
v 2 3 1
v -2 3 -1
v -1 3 -1
v 1 3 -1
v 2 3 -1
v -4 3 -2
v -3 3 -2
v -2 3 -2
v -1 3 -2
v 1 3 -2
v 2 3 -2
v 3 3 -2
v 4 3 -2
v -3 3 -3
v -2 3 -3
v 2 3 -3
v 3 3 -3
v -2 3 -4
v 2 3 -4
v -9 7 1
v -8 7 1
v -9 7 -1
v -8 7 -1
v -9 9 2
v -8 9 2
v -2 9 2
v -9 9 1
v -8 9 1
v -2 9 1
v -9 9 -1
v -8 9 -1
v -2 9 -1
v -9 9 -2
v -8 9 -2
v -2 9 -2
v -2 10 3
v 1 10 3
v 3 10 3
v -2 10 2
v 1 10 2
v 2 10 2
v 3 10 2
v -9 10 1
v -8 10 1
v -2 10 1
v -9 10 -1
v -8 10 -1
v -2 10 -1
v -2 10 -2
v 1 10 -2
v 2 10 -2
v 3 10 -2
v -2 10 -3
v 1 10 -3
v 3 10 -3
v 3 11 3
v 5 11 3
v -2 11 2
v 2 11 2
v 3 11 2
v 5 11 2
v -2 11 1
v 2 11 1
v 3 11 1
v -2 11 -1
v 2 11 -1
v 3 11 -1
v -2 11 -2
v 2 11 -2
v 3 11 -2
v 5 11 -2
v 3 11 -3
v 5 11 -3
v 3 12 2
v 6 12 2
v 3 12 1
v 4 12 1
v 5 12 1
v 3 12 -1
v 4 12 -1
v 5 12 -1
v 3 12 -2
v 6 12 -2

# faces
f 4/1/1 2/1/1 1/1/1
f 5/1/1 2/1/1 4/1/1
f 7/1/1 4/1/1 3/1/1
f 8/1/1 4/1/1 7/1/1
f 9/1/1 6/1/1 5/1/1
f 10/1/1 6/1/1 9/1/1
f 11/1/1 9/1/1 8/1/1
f 12/1/1 9/1/1 11/1/1
f 15/4/1 14/4/1 13/4/1
f 16/4/1 14/4/1 15/4/1
f 19/6/1 18/6/1 17/6/1
f 20/6/1 18/6/1 19/6/1
f 25/6/1 22/6/1 21/6/1
f 26/6/1 22/6/1 25/6/1
f 27/6/1 24/6/1 23/6/1
f 28/6/1 24/6/1 27/6/1
f 29/5/1 27/5/1 26/5/1
f 30/5/1 27/5/1 29/5/1
f 35/6/1 32/6/1 31/6/1
f 36/6/1 32/6/1 35/6/1
f 39/6/1 34/6/1 33/6/1
f 40/6/1 34/6/1 39/6/1
f 41/5/1 37/5/1 36/5/1
f 42/5/1 37/5/1 41/5/1
f 45/5/1 39/5/1 38/5/1
f 46/5/1 39/5/1 45/5/1
f 47/6/1 44/6/1 43/6/1
f 48/6/1 44/6/1 47/6/1
f 53/6/1 50/6/1 49/6/1
f 54/6/1 50/6/1 53/6/1
f 57/6/1 52/6/1 51/6/1
f 58/6/1 52/6/1 57/6/1
f 59/5/1 55/5/1 54/5/1
f 60/5/1 55/5/1 59/5/1
f 65/5/1 57/5/1 56/5/1
f 66/5/1 57/5/1 65/5/1
f 67/6/1 62/6/1 61/6/1
f 68/6/1 62/6/1 67/6/1
f 69/6/1 64/6/1 63/6/1
f 70/6/1 64/6/1 69/6/1
f 75/6/1 72/6/1 71/6/1
f 76/6/1 72/6/1 75/6/1
f 81/6/1 74/6/1 73/6/1
f 82/6/1 74/6/1 81/6/1
f 84/3/1 78/3/1 77/3/1
f 85/3/1 78/3/1 84/3/1
f 86/3/1 80/3/1 79/3/1
f 87/3/1 80/3/1 86/3/1
f 89/5/1 84/5/1 83/5/1
f 90/6/1 85/6/1 84/6/1
f 90/5/1 84/5/1 89/5/1
f 91/6/1 85/6/1 90/6/1
f 92/6/1 87/6/1 86/6/1
f 93/5/1 88/5/1 87/5/1
f 93/6/1 87/6/1 92/6/1
f 94/5/1 88/5/1 93/5/1
f 95/6/1 90/6/1 89/6/1
f 96/6/1 90/6/1 95/6/1
f 99/6/1 94/6/1 93/6/1
f 100/6/1 94/6/1 99/6/1
f 101/5/1 96/5/1 95/5/1
f 102/6/1 97/6/1 96/6/1
f 102/5/1 96/5/1 101/5/1
f 103/6/1 97/6/1 102/6/1
f 104/6/1 99/6/1 98/6/1
f 105/5/1 100/5/1 99/5/1
f 105/6/1 99/6/1 104/6/1
f 106/5/1 100/5/1 105/5/1
f 107/5/1 103/5/1 102/5/1
f 108/6/1 104/6/1 103/6/1
f 108/5/1 103/5/1 107/5/1
f 109/5/1 105/5/1 104/5/1
f 109/6/1 104/6/1 108/6/1
f 110/5/1 105/5/1 109/5/1
f 113/6/1 112/6/1 111/6/1
f 114/6/1 112/6/1 113/6/1
f 119/3/1 116/3/1 115/3/1
f 120/3/1 116/3/1 119/3/1
f 121/3/1 118/3/1 117/3/1
f 122/3/1 118/3/1 121/3/1
f 127/5/1 124/5/1 123/5/1
f 128/5/1 124/5/1 127/5/1
f 131/5/1 126/5/1 125/5/1
f 132/5/1 126/5/1 131/5/1
f 133/5/1 129/5/1 128/5/1
f 134/6/1 130/6/1 129/6/1
f 134/5/1 129/5/1 133/5/1
f 135/5/1 131/5/1 130/5/1
f 135/6/1 130/6/1 134/6/1
f 136/5/1 131/5/1 135/5/1
f 137/3/2 138/3/2 141/3/2
f 141/3/2 138/3/2 142/3/2
f 139/3/2 140/3/2 143/3/2
f 143/3/2 140/3/2 144/3/2
f 145/6/2 146/6/2 147/6/2
f 147/6/2 146/6/2 148/6/2
f 149/6/2 150/6/2 153/6/2
f 153/6/2 150/6/2 154/6/2
f 151/6/2 152/6/2 159/6/2
f 159/6/2 152/6/2 160/6/2
f 155/3/2 156/3/2 161/3/2
f 161/3/2 156/3/2 162/3/2
f 157/3/2 158/3/2 163/3/2
f 163/3/2 158/3/2 164/3/2
f 165/6/2 166/6/2 169/6/2
f 169/6/2 166/6/2 170/6/2
f 167/6/2 168/6/2 173/6/2
f 173/6/2 168/6/2 174/6/2
f 170/5/2 171/5/2 175/5/2
f 175/5/2 171/5/2 176/5/2
f 172/5/2 173/5/2 181/5/2
f 181/5/2 173/5/2 182/5/2
f 177/6/2 178/6/2 183/6/2
f 183/6/2 178/6/2 184/6/2
f 179/6/2 180/6/2 185/6/2
f 185/6/2 180/6/2 186/6/2
f 187/5/2 188/5/2 191/5/2
f 188/6/2 189/6/2 192/6/2
f 191/5/2 188/5/2 192/5/2
f 189/5/2 190/5/2 193/5/2
f 192/6/2 189/6/2 193/6/2
f 193/5/2 190/5/2 194/5/2
f 195/6/2 196/6/2 199/6/2
f 199/6/2 196/6/2 200/6/2
f 197/6/2 198/6/2 203/6/2
f 203/6/2 198/6/2 204/6/2
f 200/5/2 201/5/2 205/5/2
f 205/5/2 201/5/2 206/5/2
f 202/5/2 203/5/2 209/5/2
f 209/5/2 203/5/2 210/5/2
f 207/6/2 208/6/2 211/6/2
f 211/6/2 208/6/2 212/6/2
f 213/5/2 214/5/2 217/5/2
f 217/5/2 214/5/2 218/5/2
f 215/5/2 216/5/2 219/5/2
f 219/5/2 216/5/2 220/5/2
f 221/6/2 222/6/2 225/6/2
f 225/6/2 222/6/2 226/6/2
f 223/6/2 224/6/2 227/6/2
f 227/6/2 224/6/2 228/6/2
f 226/5/2 227/5/2 229/5/2
f 229/5/2 227/5/2 230/5/2
f 231/6/2 232/6/2 234/6/2
f 234/6/2 232/6/2 235/6/2
f 233/5/2 234/5/2 237/5/2
f 237/5/2 234/5/2 238/5/2
f 235/5/2 236/5/2 239/5/2
f 239/5/2 236/5/2 240/5/2
f 241/6/2 242/6/2 243/6/2
f 243/6/2 242/6/2 244/6/2
f 245/5/2 246/5/2 247/5/2
f 247/5/2 246/5/2 248/5/2
f 251/6/3 250/6/3 249/6/3
f 252/6/3 250/6/3 251/6/3
f 255/6/3 254/6/3 253/6/3
f 256/6/3 254/6/3 255/6/3
f 259/5/3 257/5/3 256/5/3
f 260/5/3 257/5/3 259/5/3
f 261/6/3 259/6/3 258/6/3
f 262/6/3 259/6/3 261/6/3
f 265/6/3 264/6/3 263/6/3
f 266/6/3 264/6/3 265/6/3
f 268/5/3 267/5/3 266/5/3
f 269/5/3 267/5/3 268/5/3
f 272/6/3 271/6/3 270/6/3
f 273/6/3 271/6/3 272/6/3
f 277/5/3 275/5/3 274/5/3
f 278/5/3 275/5/3 277/5/3
f 279/6/3 277/6/3 276/6/3
f 280/6/3 277/6/3 279/6/3
f 283/6/3 282/6/3 281/6/3
f 284/6/3 282/6/3 283/6/3
f 286/5/3 285/5/3 284/5/3
f 287/5/3 285/5/3 286/5/3
f 290/6/3 289/6/3 288/6/3
f 291/6/3 289/6/3 290/6/3
f 296/5/3 295/5/3 294/5/3
f 296/6/3 294/6/3 293/6/3
f 297/5/3 295/5/3 296/5/3
f 300/5/3 293/5/3 292/5/3
f 300/6/3 296/6/3 293/6/3
f 300/6/3 297/6/3 296/6/3
f 301/6/3 297/6/3 300/6/3
f 302/6/3 299/6/3 298/6/3
f 303/6/3 299/6/3 302/6/3
f 304/5/3 300/5/3 292/5/3
f 304/5/3 301/5/3 300/5/3
f 305/5/3 301/5/3 304/5/3
f 306/6/3 297/6/3 301/6/3
f 306/5/3 301/5/3 305/5/3
f 307/6/3 297/6/3 306/6/3
f 311/5/3 308/5/3 307/5/3
f 311/5/3 307/5/3 306/5/3
f 311/5/3 306/5/3 305/5/3
f 312/5/3 308/5/3 311/5/3
f 314/5/3 310/5/3 309/5/3
f 315/5/3 310/5/3 314/5/3
f 316/5/3 308/5/3 312/5/3
f 317/5/3 308/5/3 316/5/3
f 318/6/3 314/6/3 313/6/3
f 319/6/3 314/6/3 318/6/3
f 322/1/3 321/1/3 320/1/3
f 323/1/3 321/1/3 322/1/3
f 326/6/3 325/6/3 324/6/3
f 327/6/3 325/6/3 326/6/3
f 330/6/3 323/6/3 322/6/3
f 331/6/3 323/6/3 330/6/3
f 334/3/3 329/3/3 328/3/3
f 335/3/3 329/3/3 334/3/3
f 338/5/3 333/5/3 332/5/3
f 339/3/3 337/3/3 336/3/3
f 340/3/3 337/3/3 339/3/3
f 341/5/3 333/5/3 338/5/3
f 342/5/3 333/5/3 341/5/3
f 345/6/3 342/6/3 341/6/3
f 346/6/3 342/6/3 345/6/3
f 348/6/3 344/6/3 343/6/3
f 349/6/3 344/6/3 348/6/3
f 352/6/3 351/6/3 350/6/3
f 353/6/3 351/6/3 352/6/3
f 354/5/3 347/5/3 346/5/3
f 355/5/3 354/5/3 353/5/3
f 356/5/3 347/5/3 354/5/3
f 356/5/3 354/5/3 355/5/3
f 361/1/3 358/1/3 357/1/3
f 362/1/3 358/1/3 361/1/3
f 363/1/3 360/1/3 359/1/3
f 364/1/3 360/1/3 363/1/3
f 365/6/3 362/6/3 361/6/3
f 366/6/3 362/6/3 365/6/3
f 367/6/3 364/6/3 363/6/3
f 368/6/3 364/6/3 367/6/3
f 371/6/3 370/6/3 369/6/3
f 372/6/3 370/6/3 371/6/3
f 375/1/3 374/1/3 373/1/3
f 376/1/3 374/1/3 375/1/3
f 379/3/3 378/3/3 377/3/3
f 380/3/3 378/3/3 379/3/3
f 383/3/3 382/3/3 381/3/3
f 384/3/3 382/3/3 383/3/3
f 385/1/4 386/1/4 387/1/4
f 387/1/4 386/1/4 388/1/4
f 389/3/4 390/3/4 391/3/4
f 391/3/4 390/3/4 392/3/4
f 393/3/4 394/3/4 395/3/4
f 395/3/4 394/3/4 396/3/4
f 397/1/4 398/1/4 401/1/4
f 401/1/4 398/1/4 402/1/4
f 399/1/4 400/1/4 403/1/4
f 403/1/4 400/1/4 404/1/4
f 401/6/4 402/6/4 405/6/4
f 405/6/4 402/6/4 406/6/4
f 403/6/4 404/6/4 407/6/4
f 407/6/4 404/6/4 408/6/4
f 409/6/4 410/6/4 411/6/4
f 411/6/4 410/6/4 412/6/4
f 413/1/4 414/1/4 415/1/4
f 415/1/4 414/1/4 416/1/4
f 417/6/4 418/6/4 419/6/4
f 419/6/4 418/6/4 420/6/4
f 415/6/4 416/6/4 423/6/4
f 423/6/4 416/6/4 424/6/4
f 421/3/4 422/3/4 427/3/4
f 427/3/4 422/3/4 428/3/4
f 425/5/4 426/5/4 431/5/4
f 429/3/4 430/3/4 432/3/4
f 432/3/4 430/3/4 433/3/4
f 431/5/4 426/5/4 434/5/4
f 434/5/4 426/5/4 435/5/4
f 434/6/4 435/6/4 438/6/4
f 438/6/4 435/6/4 439/6/4
f 436/6/4 437/6/4 441/6/4
f 441/6/4 437/6/4 442/6/4
f 443/6/4 444/6/4 445/6/4
f 445/6/4 444/6/4 446/6/4
f 439/5/4 440/5/4 447/5/4
f 446/5/4 447/5/4 448/5/4
f 447/5/4 440/5/4 449/5/4
f 448/5/4 447/5/4 449/5/4
f 450/6/4 451/6/4 452/6/4
f 452/6/4 451/6/4 453/6/4
f 453/5/4 454/5/4 455/5/4
f 455/5/4 454/5/4 456/5/4
f 457/6/4 458/6/4 459/6/4
f 459/6/4 458/6/4 460/6/4
f 463/5/4 464/5/4 465/5/4
f 462/6/4 463/6/4 465/6/4
f 465/5/4 464/5/4 466/5/4
f 461/5/4 462/5/4 469/5/4
f 462/6/4 465/6/4 469/6/4
f 465/6/4 466/6/4 469/6/4
f 469/6/4 466/6/4 470/6/4
f 467/6/4 468/6/4 471/6/4
f 471/6/4 468/6/4 472/6/4
f 461/5/4 469/5/4 473/5/4
f 469/5/4 470/5/4 473/5/4
f 473/5/4 470/5/4 474/5/4
f 470/6/4 466/6/4 475/6/4
f 474/5/4 470/5/4 475/5/4
f 475/6/4 466/6/4 476/6/4
f 476/5/4 477/5/4 480/5/4
f 475/5/4 476/5/4 480/5/4
f 474/5/4 475/5/4 480/5/4
f 480/5/4 477/5/4 481/5/4
f 478/5/4 479/5/4 483/5/4
f 483/5/4 479/5/4 484/5/4
f 481/5/4 477/5/4 485/5/4
f 485/5/4 477/5/4 486/5/4
f 482/6/4 483/6/4 487/6/4
f 487/6/4 483/6/4 488/6/4
f 489/6/4 490/6/4 491/6/4
f 491/6/4 490/6/4 492/6/4
f 492/5/4 493/5/4 494/5/4
f 494/5/4 493/5/4 495/5/4
f 496/6/4 497/6/4 498/6/4
f 498/6/4 497/6/4 499/6/4
f 500/5/4 501/5/4 503/5/4
f 503/5/4 501/5/4 504/5/4
f 502/6/4 503/6/4 505/6/4
f 505/6/4 503/6/4 506/6/4
f 507/6/4 508/6/4 509/6/4
f 509/6/4 508/6/4 510/6/4
f 510/5/4 511/5/4 513/5/4
f 513/5/4 511/5/4 514/5/4
f 512/6/4 513/6/4 515/6/4
f 515/6/4 513/6/4 516/6/4
f 517/6/4 518/6/4 519/6/4
f 519/6/4 518/6/4 520/6/4
f 524/6/5 522/6/5 521/6/5
f 525/6/5 522/6/5 524/6/5
f 528/6/5 524/6/5 523/6/5
f 528/6/5 526/6/5 525/6/5
f 528/6/5 525/6/5 524/6/5
f 529/6/5 526/6/5 528/6/5
f 532/6/5 528/6/5 527/6/5
f 532/6/5 530/6/5 529/6/5
f 532/6/5 529/6/5 528/6/5
f 533/6/5 530/6/5 532/6/5
f 535/6/5 532/6/5 531/6/5
f 535/6/5 534/6/5 533/6/5
f 535/6/5 533/6/5 532/6/5
f 536/6/5 534/6/5 535/6/5
f 537/6/5 534/6/5 536/6/5
f 538/6/5 534/6/5 537/6/5
f 539/6/5 537/6/5 536/6/5
f 540/6/5 537/6/5 539/6/5
f 541/6/5 537/6/5 540/6/5
f 542/6/5 537/6/5 541/6/5
f 543/6/5 541/6/5 540/6/5
f 544/6/5 541/6/5 543/6/5
f 545/6/5 541/6/5 544/6/5
f 546/6/5 541/6/5 545/6/5
f 547/6/5 545/6/5 544/6/5
f 548/6/5 545/6/5 547/6/5
f 551/5/5 550/5/5 549/5/5
f 552/5/5 550/5/5 551/5/5
f 553/5/5 550/5/5 552/5/5
f 554/5/5 550/5/5 553/5/5
f 555/5/5 550/5/5 554/5/5
f 559/6/5 553/6/5 552/6/5
f 560/6/5 553/6/5 559/6/5
f 561/6/5 555/6/5 554/6/5
f 562/1/5 557/1/5 556/1/5
f 563/6/5 558/6/5 557/6/5
f 563/1/5 557/1/5 562/1/5
f 563/6/5 559/6/5 558/6/5
f 564/6/5 559/6/5 563/6/5
f 565/6/5 559/6/5 564/6/5
f 566/6/5 561/6/5 560/6/5
f 567/6/5 555/6/5 561/6/5
f 567/6/5 561/6/5 566/6/5
f 569/6/5 566/6/5 565/6/5
f 570/6/5 566/6/5 569/6/5
f 571/6/5 555/6/5 567/6/5
f 572/6/5 555/6/5 571/6/5
f 573/5/5 570/5/5 569/5/5
f 573/5/5 569/5/5 568/5/5
f 573/5/5 572/5/5 571/5/5
f 573/5/5 571/5/5 570/5/5
f 574/5/5 572/5/5 573/5/5
f 580/5/5 576/5/5 575/5/5
f 581/5/5 576/5/5 580/5/5
f 583/1/5 578/1/5 577/1/5
f 584/6/5 579/6/5 578/6/5
f 584/1/5 578/1/5 583/1/5
f 585/6/5 579/6/5 584/6/5
f 589/1/5 587/1/5 586/1/5
f 590/6/5 588/6/5 587/6/5
f 590/1/5 587/1/5 589/1/5
f 591/6/5 588/6/5 590/6/5
f 592/6/5 582/6/5 581/6/5
f 592/6/5 581/6/5 580/6/5
f 593/6/5 582/6/5 592/6/5
f 594/6/5 582/6/5 593/6/5
f 595/5/5 593/5/5 592/5/5
f 596/5/5 593/5/5 595/5/5
f 599/5/5 598/5/5 597/5/5
f 600/5/5 598/5/5 599/5/5
f 603/5/5 601/5/5 600/5/5
f 604/5/5 601/5/5 603/5/5
f 605/5/5 603/5/5 602/5/5
f 606/5/5 603/5/5 605/5/5
f 609/1/5 608/1/5 607/1/5
f 610/1/5 608/1/5 609/1/5
f 611/6/6 612/6/6 614/6/6
f 614/6/6 612/6/6 615/6/6
f 613/6/6 614/6/6 618/6/6
f 618/6/6 614/6/6 619/6/6
f 615/6/6 616/6/6 620/6/6
f 620/6/6 616/6/6 621/6/6
f 617/6/6 618/6/6 624/6/6
f 624/6/6 618/6/6 625/6/6
f 621/6/6 622/6/6 626/6/6
f 626/6/6 622/6/6 627/6/6
f 623/6/6 624/6/6 629/6/6
f 629/6/6 624/6/6 630/6/6
f 627/6/6 628/6/6 633/6/6
f 633/6/6 628/6/6 634/6/6
f 630/6/6 631/6/6 635/6/6
f 635/6/6 631/6/6 636/6/6
f 632/6/6 633/6/6 639/6/6
f 639/6/6 633/6/6 640/6/6
f 636/6/6 637/6/6 641/6/6
f 641/6/6 637/6/6 642/6/6
f 638/6/6 639/6/6 643/6/6
f 643/6/6 639/6/6 644/6/6
f 642/6/6 643/6/6 645/6/6
f 645/6/6 643/6/6 646/6/6
f 647/5/6 648/5/6 650/5/6
f 650/5/6 648/5/6 651/5/6
f 651/5/6 648/5/6 652/5/6
f 652/5/6 648/5/6 653/5/6
f 649/5/6 650/5/6 656/5/6
f 650/5/6 651/5/6 656/5/6
f 656/5/6 651/5/6 657/5/6
f 657/5/6 651/5/6 658/5/6
f 652/5/6 653/5/6 659/5/6
f 653/5/6 654/5/6 659/5/6
f 659/5/6 654/5/6 660/5/6
f 660/5/6 654/5/6 661/5/6
f 656/5/6 657/5/6 663/5/6
f 655/5/6 656/5/6 663/5/6
f 663/5/6 657/5/6 664/5/6
f 661/5/6 662/5/6 665/5/6
f 660/5/6 661/5/6 665/5/6
f 665/5/6 662/5/6 666/5/6
f 655/5/6 663/5/6 667/5/6
f 666/5/6 662/5/6 670/5/6
f 667/5/6 668/5/6 671/5/6
f 655/5/6 667/5/6 671/5/6
f 671/5/6 668/5/6 672/5/6
f 672/5/6 668/5/6 673/5/6
f 669/5/6 670/5/6 676/5/6
f 670/5/6 662/5/6 677/5/6
f 676/5/6 670/5/6 677/5/6
f 677/5/6 662/5/6 678/5/6
f 673/5/6 674/5/6 679/5/6
f 672/5/6 673/5/6 679/5/6
f 679/5/6 674/5/6 680/5/6
f 680/5/6 674/5/6 681/5/6
f 675/5/6 676/5/6 682/5/6
f 676/5/6 677/5/6 682/5/6
f 682/5/6 677/5/6 683/5/6
f 683/5/6 677/5/6 684/5/6
f 680/5/6 681/5/6 685/5/6
f 682/5/6 683/5/6 685/5/6
f 681/5/6 682/5/6 685/5/6
f 685/5/6 683/5/6 686/5/6
f 687/6/6 688/6/6 690/6/6
f 690/6/6 688/6/6 691/6/6
f 689/6/6 690/6/6 694/6/6
f 691/6/6 692/6/6 694/6/6
f 690/6/6 691/6/6 694/6/6
f 694/6/6 692/6/6 695/6/6
f 695/6/6 692/6/6 696/6/6
f 696/6/6 692/6/6 697/6/6
f 697/6/6 692/6/6 698/6/6
f 698/6/6 692/6/6 699/6/6
f 693/6/6 694/6/6 701/6/6
f 694/6/6 695/6/6 701/6/6
f 696/6/6 697/6/6 702/6/6
f 702/6/6 697/6/6 703/6/6
f 699/6/6 700/6/6 704/6/6
f 698/6/6 699/6/6 704/6/6
f 701/6/6 702/6/6 705/6/6
f 693/6/6 701/6/6 705/6/6
f 705/6/6 702/6/6 706/6/6
f 703/6/6 704/6/6 707/6/6
f 704/6/6 700/6/6 708/6/6
f 707/6/6 704/6/6 708/6/6
f 693/6/6 705/6/6 709/6/6
f 709/6/6 705/6/6 710/6/6
f 710/6/6 705/6/6 711/6/6
f 706/6/6 707/6/6 712/6/6
f 712/6/6 707/6/6 713/6/6
f 708/6/6 700/6/6 714/6/6
f 714/6/6 700/6/6 715/6/6
f 715/6/6 700/6/6 716/6/6
f 712/6/6 713/6/6 717/6/6
f 710/6/6 711/6/6 717/6/6
f 714/6/6 715/6/6 717/6/6
f 713/6/6 714/6/6 717/6/6
f 711/6/6 712/6/6 717/6/6
f 717/6/6 715/6/6 718/6/6
f 718/6/6 715/6/6 719/6/6
f 719/6/6 715/6/6 720/6/6
f 718/6/6 719/6/6 721/6/6
f 721/6/6 719/6/6 722/6/6
f 723/1/6 724/1/6 725/1/6
f 725/1/6 724/1/6 726/1/6
f 727/1/6 728/1/6 730/1/6
f 728/6/6 729/6/6 731/6/6
f 730/1/6 728/1/6 731/1/6
f 731/6/6 729/6/6 732/6/6
f 733/1/6 734/1/6 736/1/6
f 734/6/6 735/6/6 737/6/6
f 736/1/6 734/1/6 737/1/6
f 737/6/6 735/6/6 738/6/6
f 739/5/6 740/5/6 742/5/6
f 740/6/6 741/6/6 743/6/6
f 742/5/6 740/5/6 743/5/6
f 743/6/6 741/6/6 744/6/6
f 744/6/6 741/6/6 745/6/6
f 746/1/6 747/1/6 749/1/6
f 747/6/6 748/6/6 750/6/6
f 749/1/6 747/1/6 750/1/6
f 750/6/6 748/6/6 751/6/6
f 752/5/6 753/5/6 756/5/6
f 754/6/6 755/6/6 757/6/6
f 756/5/6 753/5/6 757/5/6
f 753/6/6 754/6/6 757/6/6
f 757/6/6 755/6/6 758/6/6
f 759/5/6 760/5/6 763/5/6
f 763/5/6 760/5/6 764/5/6
f 761/5/6 762/5/6 765/5/6
f 762/6/6 763/6/6 766/6/6
f 765/5/6 762/5/6 766/5/6
f 766/6/6 763/6/6 767/6/6
f 765/6/6 766/6/6 768/6/6
f 766/6/6 767/6/6 768/6/6
f 768/6/6 767/6/6 769/6/6
f 769/6/6 767/6/6 770/6/6
f 768/5/6 769/5/6 771/5/6
f 769/6/6 770/6/6 772/6/6
f 771/5/6 769/5/6 772/5/6
f 772/6/6 770/6/6 773/6/6
f 773/5/6 774/5/6 775/5/6
f 775/5/6 774/5/6 776/5/6
f 777/5/6 778/5/6 779/5/6
f 779/5/6 778/5/6 780/5/6
f 780/5/6 778/5/6 781/5/6
f 779/6/6 780/6/6 782/6/6
f 780/2/6 781/2/6 783/2/6
f 782/6/6 780/6/6 783/6/6
f 781/5/6 778/5/6 784/5/6
f 783/2/6 781/2/6 784/2/6
f 782/5/6 783/5/6 785/5/6
f 783/5/6 784/5/6 785/5/6
f 784/5/6 778/5/6 786/5/6
f 785/5/6 784/5/6 786/5/6
